<?xml version="1.0" encoding="utf-8"?>
<!-- Generator: Adobe Illustrator 16.0.0, SVG Export Plug-In . SVG Version: 6.00 Build 0)  -->
<!DOCTYPE svg PUBLIC "-//W3C//DTD SVG 1.1 Tiny//EN" "http://www.w3.org/Graphics/SVG/1.1/DTD/svg11-tiny.dtd">
<svg version="1.1" baseProfile="tiny" id="Calque_1"
	 xmlns="http://www.w3.org/2000/svg" xmlns:xlink="http://www.w3.org/1999/xlink" x="0px" y="0px" width="309.6px" height="492px"
	 viewBox="0 0 309.6 492" xml:space="preserve">
<path stroke="#FFCC00" stroke-miterlimit="10" d="M302.295,189.316c8.712-39.494-14.594-56.12-14.594-56.12
	c-4.137-4.574-18.947-6.534-18.947-6.534c-4.356,0-3.485-3.703-3.485-3.703l-0.653-7.624c2.614-3.484-3.049-6.751-3.049-6.751
	c6.316-0.218,6.098-6.97,6.098-6.97l10.02-9.583c4.138-1.742,5.227-7.841,5.227-7.841c0-5.445,3.269-10.019,3.269-10.019
	c1.087-2.613,1.087-3.048,1.087-3.048l-1.959-3.267c5.228-1.961,1.741-6.534,1.741-6.534c-2.831-0.653-1.741-4.574-1.741-4.574
	c7.623-8.93,0.872-17.206,0.872-17.206l-3.704-9.148c-2.178-12.415-19.384-17.859-19.384-17.859l-7.842,0.871l-19.383-6.97
	c-5.662,3.268-18.513,1.743-18.513,1.743c-4.572-0.218-11.543,6.534-11.543,6.534l5.228,4.574l-0.653,3.485l-16.336,15.463
	c-3.703,1.089-1.089,4.791-1.089,4.791l-0.219,5.228l-8.929,6.098c-10.235,5.445-0.331,10.455-0.331,10.455l-3.382,3.703v3.049
	l-58.039-32.452c-3.702,1.089-2.776,5.227-2.776,5.227l58.831,33.323l-2.391,0.871c1.525,3.267-5.667,15.681-5.667,15.681
	c-0.653,11.761,9.343,7.405,9.343,7.405c-0.656,3.267,10.111,11.035,10.111,11.035c-18.695-0.291-48.605,6.389-48.605,6.389
	c-20.256-0.436-25.046,15.899-25.046,15.899c-4.574-0.872-14.158,11.979-14.158,11.979c-5.009-3.92-11.541,1.742-11.541,1.742
	c-7.623-1.96-9.15,3.92-9.15,3.92c-2.612-1.742-13.068,1.525-13.068,1.525c-34.63-11.979-43.34,14.811-43.34,14.811
	c-15.247,16.553-9.584,34.848-9.584,34.848c0.218,7.84,9.146,16.552,9.146,16.552c6.099,0.653,14.813,6.534,14.813,6.534
	c3.483-2.178,7.839-1.088,7.839-1.088l-3.05,22.432l-19.164,2.396c-18.948,7.623-11.763,32.234-11.763,32.234s6.099-20.038,0,0.871
	c-6.099,20.908,1.962,58.805,1.962,58.805l-0.438,35.501l19.82,20.69l2.831,26.572c-4.574,5.227-6.752,22.214-6.752,22.214
	c-2.178-1.524-5.227,1.019-5.227,1.019c-10.019,17.205,0.219,20.616,0.219,20.616s5.045,5.032,18.139,9.365
	c30.273,10.019,32.826-9.365,32.826-9.365c1.522-4.356,0-12.45,0-12.45l35.065-25.119l22.868,22.562
	c-11.762,10.018-11.762,13.195-11.762,13.195h9.584l10.453-6.281c7.405,1.959,7.759,4.301,7.759,4.301s7.55,22.659,30.781,20.626
	c23.232-2.032,37.689-16.838,37.689-16.838c1.96-1.742,0.871-5.587,0.871-5.587l3.921,4.828l6.534,0.236l-8.495-15.236
	c1.525-7.187-2.396-9.795-2.396-9.795c-4.79-23.959-14.591-27.658-14.591-27.658l-0.944-7.445l38.915-37.913l9.582,10.164
	l12.632-6.248c-2.759-2.759-0.872-3.339-0.872-3.339c1.309-0.581,3.921,2.178,3.921,2.178l2.323-2.032l0.871-21.779l-8.133-9.004
	l-0.144-2.332c-117.175,17.568-192.969-4.791-192.969-4.791c97.792,20.255,193.112,3.084,193.112,3.084l8.133-64.49
	c-29.912,9.003-66.211,10.02-66.211,10.02c96.702-9.438,78.408-27.156,78.408-27.156c4.937-3.049,3.629-7.551,3.629-7.551
	l1.599-7.705c3.192-3.631,1.015-6.679,1.015-6.679c-2.758-1.452-1.306-3.485-1.306-3.485c5.809-0.871,5.227-8.422,5.227-8.422
	c7.987-7.695,5.809-17.568,5.809-17.568c6.099-3.049,2.468-6.969,2.468-6.969C300.552,194.254,302.295,189.316,302.295,189.316z
	 M228.825,367.039l-28.168,27.007l-4.064-24.104C196.592,369.942,220.694,368.201,228.825,367.039z M74.044,444.283
	c0.871-4.355-9.293-24.102-9.293-24.102c-3.193-11.615-0.581-30.492-0.581-30.492l38.623,35.428L74.044,444.283z M147.223,439.348
	l-21.489-16.553l14.521-11.325l23.232,14.81L147.223,439.348z M172.199,400.434l-0.583,13.939l-5.227,2.324l-15.1-13.648
	l10.164-8.132L172.199,400.434z M153.321,381.3L140.4,392.625L125.444,381.3H153.321z M87.402,369.942l39.494,32.815l-13.359,11.615
	L63.59,373.428l1.742-4.938C71.721,369.941,87.402,369.942,87.402,369.942z"/>
</svg>
