<?xml version="1.0" encoding="utf-8"?>
<!-- Generator: Adobe Illustrator 16.0.0, SVG Export Plug-In . SVG Version: 6.00 Build 0)  -->
<!DOCTYPE svg PUBLIC "-//W3C//DTD SVG 1.1 Tiny//EN" "http://www.w3.org/Graphics/SVG/1.1/DTD/svg11-tiny.dtd">
<svg version="1.1" baseProfile="tiny" id="Title" xmlns="http://www.w3.org/2000/svg" xmlns:xlink="http://www.w3.org/1999/xlink"
	 x="0px" y="0px" width="960px" height="560px" viewBox="0 0 960 560" xml:space="preserve">
<g id="Play">
	<g>
		<g>
			<path d="M469.937,555.826c-33.854,0-61.397-27.543-61.397-61.397s27.544-61.396,61.397-61.396
				c33.854,0,61.396,27.542,61.396,61.396S503.791,555.826,469.937,555.826z M469.937,437.445
				c-31.421,0-56.984,25.563-56.984,56.983c0,31.422,25.563,56.984,56.984,56.984s56.983-25.563,56.983-56.984
				C526.92,463.009,501.357,437.445,469.937,437.445z"/>
		</g>
	</g>
	<g>
		<polygon points="438,456.557 438,477.735 469.284,495.798 438,513.86 438,535.038 505.967,495.798 		"/>
	</g>
	<g>
		<g>
			<path fill="#FF1D25" d="M469.937,558.474c-33.854,0-61.397-27.543-61.397-61.397c0-33.854,27.544-61.396,61.397-61.396
				c33.854,0,61.396,27.542,61.396,61.396C531.333,530.931,503.791,558.474,469.937,558.474z M469.937,440.093
				c-31.421,0-56.984,25.563-56.984,56.983c0,31.423,25.563,56.984,56.984,56.984s56.983-25.562,56.983-56.984
				C526.92,465.656,501.357,440.093,469.937,440.093z"/>
		</g>
	</g>
	<g>
		<polygon fill="#FF1D25" stroke="#000000" stroke-miterlimit="10" points="441.5,456.557 441.5,477.735 472.784,495.798 
			441.5,513.86 441.5,535.038 509.467,495.798 		"/>
	</g>
</g>
<g id="Panic">
	<g id="P_1_">
		<g>
			<path d="M259.266,144.103c39.091,15.341,1.462,101.191-26.304,98.998l-12.418,1.462l-12.42,44.2l-29.591,0.367l28.138-41.456
				l10.777-16.077l14.613,1.647l17.169-14.797l9.681-20.456l6.213-18.629l-0.185-22.647l-11.142-1.646L259.266,144.103z"/>
		</g>
		<g>
			<path d="M225.666,213.52l8.221-31.598c0,0,7.854-4.022,11.142,7.667c3.287,11.694,2.739-14.973,2.739-14.973l-5.296-4.751
				l-12.601,0.548l-6.029,10.594l-6.211,20.276l-1.642,8.219L225.666,213.52z"/>
		</g>
		<g>
			<g>
				<g>
					<path fill="#FF1D25" stroke="#000000" stroke-miterlimit="10" d="M257.073,144.103l-46.396,10.961L178.532,289.13l28.494-4.384
						l12.419-46.757l16.442-0.733C277.895,205.111,278.625,142.643,257.073,144.103z M243.19,189.77c0,0-5.112,24.474-18.629,18.629
						l7.671-32.513C232.233,175.886,247.938,167.848,243.19,189.77z"/>
				</g>
			</g>
			<g>
				<g>
					<path fill="#FF1D25" stroke="#000000" stroke-miterlimit="10" d="M177.81,289.794l32.417-135.185l46.721-11.036
						c0.35-0.029,0.609-0.045,0.861-0.045c5.262,0,9.442,3.779,11.765,10.638c6.379,18.827-1.832,59.406-33.358,83.525l-0.131,0.109
						l-16.208,0.721l-12.413,46.712L177.81,289.794z M211.132,155.519l-31.875,132.947l27.333-4.202l12.43-46.807l16.67-0.739
						c31.013-23.831,39.112-63.705,32.846-82.201c-2.264-6.686-6.299-10.208-11.425-9.865L211.132,155.519z M228.604,209.848
						c-1.375,0-2.809-0.318-4.26-0.946l-0.422-0.18l7.837-33.206l0.226-0.119c0.118-0.061,2.959-1.499,5.943-1.499
						c2.124,0,3.782,0.721,4.924,2.142c2.027,2.507,2.321,7.169,0.874,13.843C243.559,190.692,239.43,209.848,228.604,209.848z
						 M225.203,208.068c1.166,0.452,2.31,0.685,3.401,0.685c9.945,0,14.01-18.908,14.052-19.1
						c1.373-6.336,1.153-10.683-0.657-12.926c-0.926-1.146-2.298-1.729-4.071-1.729c-2.26,0-4.52,0.946-5.224,1.272L225.203,208.068
						z"/>
				</g>
			</g>
		</g>
	</g>
	<g id="A_1_">
		<g>
			<polygon points="244.509,278.813 239.646,287.576 272.284,286.481 284.354,262.373 314.778,260.729 312.106,284.291 353,283.466 
				353,121.824 333.891,251.413 317.49,238.262 291.75,237.711 274.502,238.536 264.507,255.523 258.277,273.057 248.993,276.072 
							"/>
		</g>
		<g>
			<path d="M299.166,224.563l16.166-36.439l6.847-12.877l-5.477-11.235c0,0-15.616,3.288-15.616,4.383
				c0,1.095-7.673,21.922-7.673,21.922l-7.397,18.903l4.385,7.397l3.835,5.479L299.166,224.563z"/>
		</g>
		<g>
			<g>
				<g>
					<path fill="#FF1D25" stroke="#000000" stroke-miterlimit="10" d="M306.015,129.766l-66.848,152.605l32.878-4.383l11.51-26.028
						l32.873-3.561l-1.917,24.383l43.565-4.656l1.913-152.88L306.015,129.766z M295.882,220.729l18.078-44.934l3.564-0.547
						l0.823,42.467L295.882,220.729z"/>
				</g>
			</g>
			<g>
				<g>
					<path fill="#FF1D25" stroke="#000000" stroke-miterlimit="10" d="M238.277,283.044l67.344-153.737l54.927-14.78l-1.93,154.091
						l-44.703,4.783l1.911-24.386l-31.9,3.457l-11.508,26.021L238.277,283.044z M306.414,130.224l-66.353,151.475l31.607-4.213
						l11.508-26.037l33.852-3.667l-1.919,24.386l42.419-4.536l1.905-151.674L306.414,130.224z M295.02,221.393l18.551-46.094
						l4.489-0.688l0.844,43.582L295.02,221.393z M314.354,176.285l-17.613,43.775l21.049-2.825l-0.8-41.349L314.354,176.285z"/>
				</g>
			</g>
		</g>
	</g>
	<g id="N_1_">
		<g>
			<polygon points="376.706,257.986 367.387,283.193 411.774,281.825 424.378,231.138 435.061,281.551 472.322,281.003 
				516.432,99.355 496.982,102.37 485.747,150.041 479.172,176.068 469.854,202.916 459.992,226.203 450.129,242.094 
				436.433,239.906 435.609,222.644 427.39,207.027 418.622,204.015 411.224,223.192 406.569,241.547 400.815,254.429 
				385.472,256.341 			"/>
		</g>
		<g>
			<g>
				<polygon fill="#FF1D25" stroke="#000000" stroke-miterlimit="10" points="367.936,267.853 407.391,102.645 440.265,93.325 
					450.953,143.463 464.924,86.478 517.252,72.779 470.953,256.618 435.882,260.18 424.925,210.316 409.855,261.822 				"/>
			</g>
			<g>
				<path fill="#FF1D25" stroke="#000000" stroke-miterlimit="10" d="M367.214,268.508l39.718-166.303l33.75-9.564l10.311,48.372
					l13.478-54.982l53.542-14.016l-0.228,0.898l-46.393,184.213l-35.938,3.645l-10.605-48.245l-14.566,49.788L367.214,268.508z
					 M407.849,103.082l-39.191,164.115l40.77-5.865l15.572-53.222l11.313,51.479l34.203-3.473l45.982-182.575l-51.118,13.384
					l-14.463,58.996l-11.061-51.907L407.849,103.082z"/>
			</g>
		</g>
	</g>
	<g id="I_1_">
		<g>
			<path d="M505.837,244.2l-10.225,34.336l56.982-1.827l46.761-192.885l-27.396,3.661c0,0-5.479,73.058-5.847,71.959
				c-0.363-1.097-20.819,42.014-20.819,42.014l-12.425,29.953l-21.917,10.233L505.837,244.2z"/>
		</g>
		<g>
			<polygon fill="#FF1D25" stroke="#000000" stroke-miterlimit="10" points="495.975,253.696 540.541,67.756 598.99,51.684 
				552.232,246.027 			"/>
			<path fill="#FF1D25" stroke="#000000" stroke-miterlimit="10" d="M495.258,254.347l0.186-0.776l44.646-186.257l59.652-16.406
				l-47.066,195.608L495.258,254.347z M541,68.199l-44.309,184.85l55.097-7.515l46.454-193.076L541,68.199z"/>
		</g>
	</g>
	<g id="C_1_">
		<g>
			<path d="M775.888,69.033c0,0-19.045-19.083-54.114-5.933l-76.37,47.807l-11.705,42.354l-34.708,16.427l-4.75,15.336l-5.898,2.922
				l-3.342-0.37v39.452c0,0-2.238,84.018,145.354,25.572l-8.521-58.085l-89.735,9.499l20.527-59.912l10.989,5.846
				c0,0,28.5-26.664,62.482-2.194L775.888,69.033z"/>
		</g>
		<g>
			<path fill="#FF1D25" stroke="#000000" stroke-miterlimit="10" d="M725.743,102.096l47.128-77.08
				c0,0-85.848-43.473-165.123,71.965c0,0-61.369,89.498,6.944,132.97c0,0,42.375,27.035,114.707-20.822l-9.866-61.374
				c0,0-54.795,23.383-59.908-25.931C659.625,121.824,666.197,77.619,725.743,102.096z"/>
			<path fill="#FF1D25" stroke="#000000" stroke-miterlimit="10" d="M648.607,238.105c-21.897,0-34.089-7.616-34.208-7.697
				c-16.933-10.771-27.373-25.327-31.037-43.254c-8.644-42.331,23.612-90.009,23.939-90.484
				c45.53-66.308,93.303-80.228,125.361-80.228c24.21,0,40.294,8.002,40.452,8.083l0.531,0.27l-47.677,77.982l-0.433-0.178
				c-11.855-4.87-22.464-7.342-31.527-7.342c-28.821,0-33.582,25.114-33.834,26.579c2.152,20.513,13.075,30.91,32.464,30.91
				c13.646,0,26.554-5.438,26.682-5.494l0.645-0.273l0.111,0.695l9.916,61.716l-0.291,0.196
				C701.094,228.515,673.813,238.105,648.607,238.105z M732.663,17.541c-31.793,0-79.194,13.835-124.46,79.749
				c-0.327,0.471-32.318,47.776-23.77,89.646c3.606,17.628,13.883,31.945,30.55,42.552c0.123,0.076,12.07,7.522,33.624,7.522
				c24.902,0,51.879-9.467,80.194-28.145l-9.699-60.342c-2.809,1.103-14.351,5.321-26.463,5.321
				c-13.798,0-30.821-5.547-33.561-31.968l-0.009-0.068l0.013-0.064c0.045-0.278,4.458-27.581,34.927-27.581
				c9.098,0,19.698,2.438,31.512,7.249l46.563-76.161C769.117,23.889,754.135,17.541,732.663,17.541z"/>
		</g>
	</g>
</g>
<g id="sur">
	<path fill="#FF1D25" stroke="#000000" stroke-miterlimit="10" d="M494.548,306.16c-0.919-2.371-2.393-3.148-5.388-2.383
		c-1.364,0.347-2.071,0.525-3.526,0.914c0.974,2.83,1.571,4.363,2.781,7.457c1.421-0.442,2.116-0.659,3.466-1.073
		C494.818,310.173,495.452,308.495,494.548,306.16z"/>
	<path fill="#FF1D25" stroke="#000000" stroke-miterlimit="10" d="M522.889,322.163l-8.769-13.426l4.938-18.634
		c0,0-77.813,13.151-106.029,34.799l18.629,10.409l-6.851,26.575C424.807,361.887,478.505,331.749,522.889,322.163z
		 M488.544,299.157c4.438-1.007,7.605,0.875,9.624,5.747c1.38,3.332,1.361,6.59-0.29,8.771c3.19,3.159,4.771,4.713,7.807,7.724
		c-1.751,0.668-2.662,1.012-4.548,1.712c-2.719-2.686-4.161-4.087-7.116-6.949c-1.387,0.476-2.098,0.717-3.551,1.22
		c1.363,3.475,2.054,5.226,3.186,8.489c-1.803,0.664-2.715,1.004-4.574,1.695c-3.567-10.128-7.35-17.401-9.775-26.169
		C483.268,300.384,485.162,299.921,488.544,299.157z M458.913,307.121c1.81,5.062,3.559,8.729,6.635,15.391
		c1.933,4.197,4.843,6.741,8.18,5.457c3.368-1.297,3.696-4.492,1.734-9.093c-2.745-6.438-4.28-9.877-5.842-14.877
		c2.159-0.605,3.231-0.898,5.331-1.459c1.428,4.907,2.842,8.198,5.402,14.436c3.514,8.563,1.315,13.771-4.517,16.041
		c-5.833,2.27-11.095,0.197-15.424-8.929c-3.155-6.646-4.947-10.315-6.821-15.308C455.684,308.107,456.758,307.776,458.913,307.121z
		 M440.783,312.744c3.645-1.344,7.405-0.699,10.255,0.863c-0.668,2.03-0.945,3.104-1.423,5.332
		c-2.344-1.372-4.806-2.061-7.028-1.203c-1.861,0.725-2.464,2.285-1.675,4.046c0.654,1.455,1.895,2.358,4.35,2.016
		c0.908-0.145,1.366-0.217,2.301-0.37c5.229-0.82,9.567,1.253,12.046,6.428c2.563,5.343,0.264,9.658-4.83,12.041
		c-3.917,1.831-7.669,1.364-10.504-0.818c0.337-2.281,0.471-3.473,0.738-5.86c2.327,1.9,5.047,2.782,7.712,1.539
		c2.339-1.091,3.1-3.009,2.221-4.818c-0.71-1.482-2.105-2.264-4.56-1.88c-1.169,0.191-1.747,0.289-2.878,0.474
		c-4.287,0.753-8.064-1.424-10.322-6.73C434.618,317.792,436.847,314.203,440.783,312.744z"/>
</g>
<g id="Florida">
	<g>
		<g>
			<path d="M380.257,405.018c0,0,0.71,13.444,11.147-3.53c2.909-6.413,4.351-9.782,7.216-16.666
				c5.466,2.432,8.206,3.651,13.684,6.07c-1.208,3.002-1.811,4.479-3.021,7.382c-3.055,8.993,0.717,8.527,0.717,8.527
				c6.552-0.345,9.813-0.513,16.291-0.846c-2.829,8.584-4.244,12.594-7.067,19.59c-6.824,0.294-10.267,0.443-17.205,0.74
				c-5.562,0.247-6.48-5.297-6.48-5.297c-5.719,8.626-17.811,7.623-17.811,7.623c-13.021,1.113-16.767-12.368-15.336-22.621
				c3.976-28.463,24.483-54.865,55.266-54.221c-0.287,10.208-0.437,15.431-0.721,25.514
				C400.098,376.955,379.974,385.288,380.257,405.018z"/>
			<path d="M153.474,344.311c4.493-7.132,6.709-10.562,11.029-16.849c-27.429,3.688-54.86,7.366-82.292,11.025
				c0,0-15.723,2.636-19.224,16.02c0,0-2.412,5.406-0.158,12.6c3.087,4.88,4.532,7.421,7.308,12.646
				c5.996-5.23,9.055-7.86,15.232-13.081c-2.391-4.371-3.627-6.485-6.243-10.539c0,0-0.867-2.438,4.655-3.131
				c12.734-1.598,25.471-3.189,38.205-4.772c-7.098,11.684-13.914,23.53-20.619,35.44c-4.414,0.478-6.616,0.718-11,1.196
				c-4.238,7.076-6.336,10.642-10.452,17.658c4.374,0.126,6.569,0.19,10.992,0.323c-7.696,13.376-15.378,26.759-23.119,40.106
				c7.187-1.851,10.903-2.792,18.498-4.716c6.796-11.82,13.446-23.727,20.054-35.649c5.696-0.414,8.568-0.62,14.349-1.036
				c4.576-7.719,6.893-11.664,11.512-19.493c-6.461,0.585-9.68,0.875-16.085,1.458c7.543-12.57,15.163-25.098,23.086-37.431
				C147.579,345.049,153.474,344.311,153.474,344.311z"/>
			<path d="M174.08,327.671c5.329-0.72,7.981-1.08,13.275-1.791c-18.509,29.973-34.441,61.509-51.795,92.149
				c0,0-6.473,8.372-0.411,8.057c4.848-0.251,7.292-0.381,12.219-0.63c-3.163,5.858-4.73,8.684-7.801,14.003
				c-7.209,0.423-10.768,0.634-17.772,1.05c0,0-14.543,0.939-2.517-19.918C137.546,389.616,154.779,358.025,174.08,327.671z"/>
			<path d="M257.425,392.009c2.669-0.185,4.008-0.271,6.685-0.457c1.457-8.449,2.201-12.797,3.675-21.365
				c-11.676,1.006-17.498,1.508-29.088,2.512c-5.587-3.141-8.333-4.686-13.754-7.692c-4.749,9.31-7.17,14.077-12.046,23.368
				c-3.437,0.255-5.149,0.385-8.573,0.642c-2.421-7.822-8.805-15.997-18.317-14.933c-17.029,1.899-30.458,20.014-35.74,35.153
				c-4.613,13.201,1.542,29.165,17.557,28.038c15.173-1.063,28.096-11.52,33.439-25.774c2.246-0.122,3.367-0.192,5.616-0.319
				c0.973-2.102,1.46-3.169,2.433-5.312c4.402-0.265,6.611-0.402,11.037-0.668c3.761-4.924,5.635-7.447,9.348-12.55
				c3.983-6.052,8.756-3.809,6.543-0.508c-4.259,7.209-6.416,10.763-10.741,17.583c-8.099,10.321-11.481,27.938,6.988,24.211
				c6.845-0.321,10.276-0.479,17.171-0.798c3.141-5.9,4.721-9.115,7.865-15.865c-5.068,0.28-7.598,0.413-12.644,0.696
				c-4.807,0.243-1.089-5.37-1.089-5.37C249.303,404.702,252.041,400.528,257.425,392.009z M182.778,412.697
				c-4.586,5.457-14.064,10.377-16.963,7.503c-2.901-2.871-1.004-10.942,5.637-18.524c5.493-6.279,3.767,3.37,6.656,6.366
				C181,411.046,188.687,405.673,182.778,412.697z"/>
			<path d="M308.872,335.171c-0.819,6.633-5.662,12.764-10.776,13.29c-5.117,0.531-8.427-4.656-7.438-11.204
				c0.995-6.555,5.766-11.977,10.71-12.588C306.31,324.053,309.691,328.532,308.872,335.171z"/>
			<path d="M281.72,371.079c6.489-0.543,9.736-0.817,16.244-1.364c-5.718,14.374-11.5,28.713-17.972,42.772
				c0,0-3.988,6.42,1.281,6.154c5.135-0.258,7.704-0.385,12.848-0.643c-3.003,6.713-4.513,9.888-7.527,15.638
				c-8.781,0.397-13.165,0.599-21.91,0.996c0,0-11.396,2.018-1.979-18.798C269.421,401.061,275.668,386.143,281.72,371.079z"/>
			<path d="M345.977,400.512c10.698-33.027,19.273-66.723,30.311-99.634c-6.968,0.941-10.431,1.41-17.318,2.343
				c-6.768,20.563-12.49,41.461-18.539,62.239c-5.693,0.778-8.542,1.164-14.237,1.936c-17.831,7.319-28.965,26.262-31.768,44.743
				c-3.154,19.691,10.227,20.682,10.227,20.682c6.808-0.307,10.21-0.46,17.004-0.766c9.738-0.431,10.791-8.393,10.791-8.393
				c-0.246,8.098,6.842,7.612,6.842,7.612c5.833-0.26,8.745-0.393,14.549-0.646c2.383-5.777,3.575-9.008,5.948-15.899
				c-4.935,0.242-7.409,0.365-12.359,0.612C342.498,410.403,345.977,400.512,345.977,400.512z M327.905,405.647
				c-6.116,8.465-12.946,12.315-16.179,9.694c-3.231-2.626-1.294-11.63,4.647-19.962c5.491-7.701,13.375-12.61,16.528-9.656
				C336.054,388.687,333.862,397.414,327.905,405.647z"/>
		</g>
	</g>
	<g>
		<g>
			<path fill="#FF1D25" d="M373.338,406.866c0,0,0.714,13.563,11.177-3.552c2.916-6.47,4.363-9.87,7.236-16.818
				c5.479,2.456,8.228,3.688,13.721,6.135c-1.212,3.03-1.816,4.524-3.027,7.45c-3.061,9.068,0.719,8.594,0.719,8.594
				c6.571-0.337,9.84-0.507,16.333-0.84c-2.831,8.649-4.251,12.682-7.079,19.693c-6.843,0.29-10.294,0.44-17.249,0.742
				c-5.576,0.24-6.5-5.313-6.5-5.313c-5.733,8.657-17.864,7.64-17.864,7.64c-13.383,1.141-16.632-12.473-15.385-22.759
				c3.477-28.675,24.403-55.424,55.417-54.74c-0.288,10.317-0.436,15.6-0.725,25.792C393.14,378.543,373.046,387.04,373.338,406.866
				z"/>
			<path fill="#FF1D25" d="M146.016,345.424c4.517-7.187,6.75-10.641,11.093-16.955c-27.527,3.702-55.058,7.397-82.589,11.077
				c0,0-15.787,2.636-19.299,16.125c0,0-2.411,5.446-0.154,12.718c3.092,4.913,4.538,7.485,7.313,12.768
				c6.018-5.282,9.089-7.937,15.292-13.199c-2.392-4.417-3.626-6.555-6.249-10.636c0,0-0.867-2.463,4.676-3.16
				c12.775-1.602,25.554-3.203,38.333-4.802c-7.142,11.787-14.003,23.745-20.748,35.769c-4.428,0.482-6.631,0.723-11.03,1.203
				c-4.263,7.144-6.375,10.747-10.511,17.828c4.382,0.137,6.582,0.201,11.013,0.342c-7.734,13.49-15.446,26.988-23.224,40.454
				c7.193-1.863,10.913-2.809,18.525-4.741c6.832-11.926,13.513-23.938,20.166-35.97c5.71-0.409,8.589-0.617,14.383-1.031
				c4.605-7.797,6.936-11.782,11.59-19.688c-6.479,0.585-9.708,0.875-16.13,1.458c7.585-12.692,15.257-25.331,23.237-37.778
				C140.102,346.163,146.016,345.424,146.016,345.424z"/>
			<path fill="#FF1D25" d="M166.709,328.677c5.346-0.72,8.005-1.081,13.312-1.803c-18.68,30.219-34.689,62.064-52.149,92.987
				c0,0-6.51,8.441-0.432,8.127c4.861-0.254,7.313-0.376,12.251-0.632c-3.18,5.906-4.757,8.752-7.847,14.1
				c-7.227,0.427-10.793,0.636-17.82,1.056c0,0-14.581,0.963-2.479-20.073C129.928,391.178,147.247,359.284,166.709,328.677z"/>
			<path fill="#FF1D25" d="M250.127,393.661c2.681-0.187,4.023-0.274,6.709-0.458c1.47-8.534,2.219-12.931,3.709-21.592
				c-11.71,1.01-17.546,1.517-29.168,2.523c-5.596-3.176-8.345-4.738-13.771-7.784c-4.781,9.407-7.216,14.221-12.125,23.608
				c-3.449,0.257-5.168,0.387-8.598,0.644c-2.409-7.901-8.798-16.17-18.333-15.102c-17.139,1.919-30.6,20.27-35.917,35.485
				c-4.63,13.238,1.399,29.417,17.548,28.284c15.272-1.066,28.227-11.628,33.585-25.962c2.25-0.129,3.378-0.193,5.635-0.323
				c0.979-2.121,1.474-3.191,2.451-5.355c4.414-0.266,6.63-0.403,11.068-0.669c3.787-4.968,5.666-7.515,9.396-12.672
				c4.008-6.105,8.792-3.842,6.566-0.507c-4.282,7.282-6.45,10.868-10.799,17.752c-8.09,10.348-11.616,28.148,6.981,24.391
				c6.865-0.319,10.314-0.478,17.23-0.796c3.159-5.929,4.75-9.169,7.908-15.964c-5.084,0.273-7.624,0.414-12.688,0.688
				c-4.82,0.251-1.086-5.411-1.086-5.411C241.97,406.481,244.717,402.263,250.127,393.661z M175.228,414.507
				c-4.611,5.504-14.127,10.464-17.025,7.562c-2.9-2.899-0.979-11.042,5.691-18.698c5.524-6.344,3.768,3.404,6.66,6.439
				C173.447,412.843,181.167,407.42,175.228,414.507z"/>
			<path fill="#FF1D25" d="M301.769,336.27c-0.824,6.694-5.684,12.88-10.813,13.411c-5.128,0.537-8.443-4.712-7.443-11.319
				c1.003-6.612,5.79-12.066,10.743-12.688C299.203,325.054,302.594,329.571,301.769,336.27z"/>
			<path fill="#FF1D25" d="M274.521,372.523c6.506-0.542,9.762-0.815,16.287-1.361c-5.741,14.514-11.544,28.988-18.061,43.184
				c0,0-4.006,6.47,1.285,6.202c5.156-0.252,7.733-0.384,12.89-0.642c-3.012,6.762-4.528,9.959-7.555,15.727
				c-8.809,0.394-13.212,0.596-21.989,0.994c0,0-11.442,2.068-1.972-18.91C262.16,402.799,268.439,387.736,274.521,372.523z"/>
			<path fill="#FF1D25" d="M338.951,402.302c10.727-33.326,19.279-67.34,30.393-100.537c-6.989,0.948-10.457,1.417-17.362,2.352
				c-6.811,20.729-12.526,41.813-18.585,62.769c-5.712,0.781-8.563,1.173-14.275,1.95c-17.941,7.405-29.077,26.572-31.888,45.171
				c-3.175,19.852,10.256,20.807,10.256,20.807c6.835-0.305,10.247-0.46,17.065-0.763c9.769-0.438,10.824-8.433,10.824-8.433
				c-0.244,8.139,6.868,7.646,6.868,7.646c5.854-0.263,8.775-0.391,14.598-0.645c2.391-5.788,3.586-9.04,5.962-15.978
				c-4.948,0.244-7.428,0.363-12.396,0.612C335.462,412.283,338.951,402.302,338.951,402.302z M320.824,407.477
				c-6.139,8.534-12.992,12.405-16.232,9.755c-3.243-2.644-1.298-11.721,4.664-20.125c5.513-7.776,13.418-12.735,16.583-9.748
				C329.001,390.353,326.799,399.173,320.824,407.477z"/>
		</g>
	</g>
</g>
<g id="beach">
	<g>
		<g>
			<path d="M521.604,400.517c7.954,0.428,12.035,0.643,20.359,1.105c1.521-26.508,10.844-65.104,41.011-71.714
				c0,0,10.225-3.042,1.721,11.425c-10.167,12.829-20.052,25.847-29.834,38.972c3.114,9.791,4.693,14.611,7.938,23.708
				c0,0,4.168,8.189-0.897,7.923c-14.333-0.746-28.67-1.485-43.008-2.185c-3.5,7.649-5.197,11.294-8.415,17.758
				c20.082,0.914,40.165,1.87,60.242,2.848c0,0,16.684-0.874,16.361-20.313c-3.742-9.238-5.549-14.169-9.1-24.213
				c14.247-13.528,29.528-32.345,30.313-52.633c0.425-10.909-5.825-22.063-17.528-23.567
				C542.046,303.378,527.111,364.031,521.604,400.517z"/>
			<path d="M656.625,432.443c2.617-5.714,3.924-8.749,6.5-14.989c-11.741-0.652-17.6-0.978-29.183-1.619
				c2.196,0.125,4.368-3.827,6.563-5.883c9.457-8.87,18.584-29.929,7.332-39.572c-13.026-11.167-30.954-1.869-41.254,8.239
				c-9.731,9.556-22.178,37.397-10.544,47.61c1.103,0.965,5.217,3.405,7.148,3.497C621.001,430.629,638.813,431.535,656.625,432.443
				z M629.187,402.633c-5.389,4.947-12.622,8.305-15.483,6.754c-4.558-2.454-4.211-10.794,3.328-18.668
				c7.38-7.702,12.617-8.852,16.788-5.572C637.992,388.425,635.817,396.551,629.187,402.633z"/>
			<path d="M781.01,406.249c7.843,0.508,11.734,0.757,19.413,1.247c-0.058-13.892-9.206-25.955-23.758-26.862
				c0,0-10.119-2.168-19.865,2.36c-13.972,6.489-20.359,22.317-18.104,37.17c0,0,1.819,16.582,18.138,17.414
				c16.531,0.836,33.063,1.668,49.592,2.494c1.257-5.715,1.849-8.649,3.002-14.566c-15.221-0.81-30.437-1.635-45.648-2.465
				c0,0-10.928-1.202-5.659-14.755c0,0,1.346-6.619,11.295-12.625C769.414,395.661,778.67,391.754,781.01,406.249z"/>
			<path d="M840.156,389.483c-2.134,1.643-2.891-2.859-2.891-2.859c2.001-16.031,4.008-32.056,6.275-48.048
				c-8.423-0.633-12.694-0.963-21.347-1.659c-4.455,34.439-7.788,68.974-13.246,103.28c7.994,0.394,11.935,0.583,19.68,0.965
				c2.789-11.031,6.021-31.568,18.031-35.806c0,0,5.784,1.688,2.046,9.131c-4.774,9.505-1.208,22.925,10.593,26.838
				c7.211,0.694,10.738,1.038,17.601,1.706c1.558-5.563,2.298-8.369,3.731-13.96c-5.343-0.245-8.07-0.377-13.634-0.644
				c0,0-3.303-0.639-1.932-4.625c4.24-12.333,7.141-35.419-12.35-35.813C852.715,387.989,843.996,386.536,840.156,389.483z"/>
			<path d="M686.584,412.576c0,0,1.935,10.922,12.499-1.621c2.799-4.858,4.178-7.327,6.896-12.271
				c6.479,2.589,9.737,3.863,16.266,6.389c-1.107,2.359-1.662,3.529-2.786,5.864c-2.72,6.702,1.654,7.35,1.654,7.35
				c7.573,0.428,11.357,0.645,18.873,1.067c-2.475,6.065-3.741,9.061-6.33,14.798c-7.99-0.415-12.002-0.622-20.042-1.035
				c-6.446-0.335-8.028-5.382-8.028-5.382c-5.807,7.055-19.782,5.21-19.782,5.21c-12.196-0.199-20.192-9.999-19.505-21.567
				c1.811-30.525,32.922-38.909,58.663-34.691c0.561,7.476,0.842,11.25,1.405,18.71
				C713.381,393.665,684.935,392.747,686.584,412.576z"/>
		</g>
	</g>
	<g>
		<g>
			<path fill="#FF1D25" d="M528.795,400.853c7.97,0.421,12.056,0.646,20.401,1.104c1.618-26.671,10.724-65.752,41.149-72.467
				c0,0,10.264-3.075,1.731,11.533c-10.21,12.969-20.128,26.128-29.941,39.398c3.12,9.888,4.7,14.761,7.954,23.939
				c0,0,4.176,8.255-0.905,7.983c-14.366-0.747-28.73-1.483-43.103-2.18c-3.504,7.716-5.205,11.379-8.418,17.863
				c20.127,0.917,40.255,1.871,60.375,2.854c0,0,16.729-0.853,16.408-20.455c-3.753-9.318-5.567-14.294-9.122-24.438
				c14.245-13.686,29.678-32.677,30.424-53.187c0.398-11.007-5.817-22.221-17.581-23.736
				C549.109,302.754,534.283,364.25,528.795,400.853z"/>
			<path fill="#FF1D25" d="M664.24,432.967c2.631-5.751,3.932-8.81,6.521-15.103c-11.785-0.654-17.66-0.979-29.287-1.617
				c2.203,0.121,4.381-3.861,6.586-5.94c9.515-8.99,18.657-30.227,7.358-39.978c-13.076-11.284-31.096-1.828-41.397,8.354
				c-9.773,9.663-22.267,37.758-10.584,48.046c1.101,0.974,5.237,3.427,7.17,3.521C628.488,431.145,646.364,432.055,664.24,432.967z
				 M636.7,402.928c-5.414,4.994-12.671,8.388-15.544,6.826c-4.574-2.479-4.223-10.897,3.346-18.854
				c7.399-7.78,12.66-8.946,16.852-5.638C645.54,388.565,643.35,396.78,636.7,402.928z"/>
			<path fill="#FF1D25" d="M789.073,406.49c7.871,0.507,11.772,0.755,19.479,1.243c-0.084-13.959-9.196-26.192-23.874-27.109
				c0,0-10.148-2.19-19.925,2.386c-14.053,6.586-20.398,22.61-18.128,37.557c0,0,1.849,16.717,18.228,17.551
				c16.592,0.844,33.184,1.678,49.775,2.503c1.243-5.766,1.842-8.727,2.989-14.7c-15.278-0.81-30.546-1.634-45.812-2.465
				c0,0-10.976-1.206-5.701-14.896c0,0,1.346-6.687,11.323-12.755C777.428,395.804,786.707,391.851,789.073,406.49z"/>
			<path fill="#FF1D25" d="M848.359,389.519c-2.132,1.655-2.897-2.89-2.897-2.89c1.966-16.185,3.947-32.359,6.207-48.513
				c-8.445-0.627-12.731-0.962-21.404-1.654c-4.413,34.771-7.67,69.641-13.112,104.284c8.021,0.393,11.979,0.59,19.748,0.968
				c2.777-11.116,5.944-31.847,18.023-36.162c0,0,5.796,1.703,2.062,9.218c-4.762,9.588-1.203,23.118,10.67,27.099
				c7.228,0.701,10.761,1.041,17.636,1.714c1.552-5.618,2.287-8.448,3.717-14.1c-5.353-0.25-8.087-0.379-13.667-0.645
				c0,0-3.304-0.64-1.938-4.673c4.202-12.406,7.148-35.761-12.453-36.165C860.949,388,852.208,386.539,848.359,389.519z"/>
			<path fill="#FF1D25" d="M694.311,412.933c0,0,1.951,11.019,12.543-1.644c2.803-4.904,4.191-7.398,6.919-12.398
				c6.51,2.612,9.768,3.903,16.324,6.451c-1.105,2.374-1.662,3.564-2.784,5.924c-2.729,6.77,1.664,7.408,1.664,7.408
				c7.607,0.431,11.392,0.645,18.943,1.075c-2.478,6.124-3.749,9.137-6.336,14.921c-8.028-0.409-12.057-0.62-20.127-1.038
				c-6.475-0.335-8.066-5.417-8.066-5.417c-5.818,7.112-19.854,5.249-19.854,5.249c-12.281-0.188-20.283-10.106-19.59-21.729
				c1.83-30.714,32.878-39.348,58.863-35.076c0.565,7.548,0.848,11.362,1.419,18.902
				C721.13,393.813,692.631,392.964,694.311,412.933z"/>
		</g>
	</g>
</g>
</svg>
