<?xml version="1.0" encoding="utf-8"?>
<!-- Generator: Adobe Illustrator 16.0.0, SVG Export Plug-In . SVG Version: 6.00 Build 0)  -->
<!DOCTYPE svg PUBLIC "-//W3C//DTD SVG 1.1 Tiny//EN" "http://www.w3.org/Graphics/SVG/1.1/DTD/svg11-tiny.dtd">
<svg version="1.1" baseProfile="tiny" id="Calque_1"
	 xmlns="http://www.w3.org/2000/svg" xmlns:xlink="http://www.w3.org/1999/xlink" x="0px" y="0px" width="133.6px" height="133.6px"
	 viewBox="0 0 133.6 133.6" xml:space="preserve">
<g id="Play">
	<g>
		<g>
			<path d="M66.336,126.826c-33.854,0-61.397-27.543-61.397-61.397S32.483,4.032,66.336,4.032c33.854,0,61.396,27.542,61.396,61.396
				S100.191,126.826,66.336,126.826z M66.336,8.445c-31.421,0-56.984,25.563-56.984,56.983c0,31.422,25.563,56.984,56.984,56.984
				s56.983-25.563,56.983-56.984C123.32,34.009,97.757,8.445,66.336,8.445z"/>
		</g>
	</g>
	<g>
		<polygon points="34.4,27.557 34.4,48.735 65.684,66.798 34.4,84.86 34.4,106.038 102.367,66.798 		"/>
	</g>
	<g>
		<g>
			<path fill="#FF1D25" d="M66.336,129.474c-33.854,0-61.397-27.543-61.397-61.397c0-33.854,27.544-61.396,61.397-61.396
				c33.854,0,61.396,27.542,61.396,61.396C127.733,101.931,100.191,129.474,66.336,129.474z M66.336,11.093
				c-31.421,0-56.984,25.563-56.984,56.983c0,31.423,25.563,56.984,56.984,56.984s56.983-25.562,56.983-56.984
				C123.32,36.656,97.757,11.093,66.336,11.093z"/>
		</g>
	</g>
	<g>
		<polygon fill="#FF1D25" stroke="#000000" stroke-miterlimit="10" points="37.9,27.557 37.9,48.735 69.184,66.798 37.9,84.86 
			37.9,106.038 105.867,66.798 		"/>
	</g>
</g>
</svg>
