<?xml version="1.0" encoding="utf-8"?>
<!-- Generator: Adobe Illustrator 16.0.0, SVG Export Plug-In . SVG Version: 6.00 Build 0)  -->
<!DOCTYPE svg PUBLIC "-//W3C//DTD SVG 1.1 Tiny//EN" "http://www.w3.org/Graphics/SVG/1.1/DTD/svg11-tiny.dtd">
<svg version="1.1" baseProfile="tiny" id="Calque_1"
	 xmlns="http://www.w3.org/2000/svg" xmlns:xlink="http://www.w3.org/1999/xlink" x="0px" y="0px" width="1024px" height="768px"
	 viewBox="0 0 1024 768" xml:space="preserve">
<polygon id="city" stroke="#F5B700" stroke-miterlimit="10" points="1298.5,413.5 1297.5,413.5 1292.5,416.841 1292.5,424.5 
	1288.5,424.5 1288.5,430.5 1281.5,430.5 1281.5,440.5 1273.5,440.5 1268.66,445.5 1263.5,445.5 1263.5,442.5 1253.5,442.5 
	1253.5,439.5 1250.5,439.5 1250.5,401.5 1247.5,401.5 1247.5,390 1241.992,383.5 1236.5,383.5 1230.5,387.841 1230.5,412.5 
	1227.5,412.5 1227.5,422.5 1223.5,422.5 1223.5,436.5 1220.5,436.5 1220.5,434.5 1217.5,434.5 1217.5,421 1212.5,426.174 
	1212.5,433.5 1199.5,433.5 1199.5,402.5 1192.5,402.5 1192.5,381.5 1188.5,381.5 1184.992,377.825 1180.484,381.5 1170.5,381.5 
	1170.5,412.5 1166.5,412.5 1166.5,419.5 1163.5,419.5 1163.5,372 1160.5,369.159 1160.5,340 1155.5,335.326 1155.5,325 
	1152.5,322.25 1152.5,322 1149.5,324.75 1149.5,335 1142.5,341.875 1142.5,397.5 1140.5,397.5 1140.5,394.5 1137.5,394.5 
	1131.5,398.75 1131.5,405.5 1129.5,405.5 1129.5,424.5 1125.5,424.5 1125.5,385 1123.5,383.25 1123.5,373 1121.5,371.375 
	1121.5,366.5 1115.5,366.5 1115.5,371 1113.5,373.5 1113.5,382 1110.5,385.25 1110.5,395.5 1102.5,395.5 1102.5,430.5 1100.5,430.5 
	1100.5,427 1098.25,424.5 1091.5,424.5 1091.5,430.5 1088.5,430.5 1088.5,414.5 1083.5,414.5 1083.5,411.5 1072.5,411.5 
	1072.5,419.5 1064.5,419.5 1064.5,429.5 1054.5,429.5 1054.5,412.5 1051.5,412.5 1051.5,407.5 1046.5,407.5 1046.5,403 
	1044.875,400.5 1042.5,400.5 1038.5,402.75 1038.5,407.5 1036.5,407.5 1036.5,426.5 1033.5,426.5 1033.5,422 1029.063,417.75 
	1025.5,421.125 1025.5,426.5 1019.5,426.5 1019.5,433.5 1007.5,433.5 1007.5,390.5 997.5,390.5 997.5,371 991.188,364.625 
	984.5,371.375 984.5,434.5 981.5,434.5 981.5,427 981.5,422.5 979.5,422.5 979.5,428 979.5,434.5 962.5,434.5 962.5,428.5 
	954.5,428.5 954.5,432.5 937.5,432.5 937.5,411.5 932.5,411.5 932.5,407.5 921.5,407.5 921.5,411.5 912.5,411.5 912.5,433.5 
	899.5,433.5 899.5,418.5 895.5,418.5 895.5,405 891,400.25 887.5,404 887.5,418.5 870.5,418.5 870.5,434.5 859.5,434.5 859.5,418.5 
	853.5,418.5 853.5,406.5 851.5,406.5 851.5,395 849.5,392.625 849.5,385.5 843.5,385.5 843.5,393 841.5,395.375 841.5,406 
	841.5,420.5 832.5,420.5 827,415.375 821.5,420 821.5,431.5 811.5,431.5 811.5,430.5 808.5,430.5 808.5,418.5 805.5,418.5 
	805.5,413.5 799.5,413.5 799.5,418.5 797.5,418.5 791.5,423.375 791.5,431.5 788.5,431.5 788.5,423.5 786.5,423.5 786.5,414 
	786.5,409.5 781.5,409.5 781.5,407.5 778.5,407.5 776.125,409.5 771.5,409.5 771.5,414.5 767.5,414.5 767.5,418.5 765.5,418.5 
	765.5,428.5 761.5,428.5 757.5,431.5 757.5,402.5 755.5,402.5 753.75,401 751.5,403.5 747.5,403.5 747.5,416.5 745.5,416.5 
	745.5,411.5 741.5,411.5 741.5,417.5 737.5,417.5 737.5,422 734.5,418.875 734.5,413 731.5,409.5 727.5,409.5 721.5,414.125 
	721.5,425 717.5,420.625 717.5,412 713.75,407.75 709.625,412.125 707,409.875 703.5,413 703.5,427.5 698.5,427.5 698.5,421.5 
	696.5,421.5 696.5,433.5 692.5,433.5 692.5,414.5 691.5,414.5 691.5,407.5 685.5,407.5 679.25,413.5 675.5,413.5 675.5,408.5 
	670.5,408.5 670.5,430.5 661.5,430.5 661.5,411.5 659.5,411.5 659.5,405 652.25,397.75 649.5,400.5 649.5,404.5 647.5,404.5 
	647.5,409.5 641.5,409.5 641.5,426.5 639.5,426.5 639.5,417.5 626.5,417.5 626.5,411 622.5,406.625 622.5,412.5 618.5,412.5 
	618.5,416.5 615.5,416.5 615.5,426.5 613.5,426.5 613.5,420.5 602.5,420.5 602.5,414 600,411.5 593.5,411.5 593.5,407.5 
	584.5,407.5 584.5,423 580.5,427.25 580.5,421.5 577.5,421.5 577.5,400 572.438,394.75 569.5,397.875 569.5,402.5 567.5,402.5 
	567.5,408.5 565.5,408.5 565.5,412.5 562.5,412.5 562.5,386.5 559.5,386.5 553.5,390.75 553.5,397 550.5,399.625 550.5,414 
	547.5,417.375 547.5,416.5 538.5,416.5 538.5,436.5 532.5,436.5 532.5,395.5 525.5,395.5 525.5,392.5 517.5,392.5 517.5,396.5 
	516.5,396.5 516.5,386.5 514.5,386.5 510.5,386.5 506.5,386.5 506.5,396.5 505.5,396.5 505.5,392.5 497.5,392.5 497.5,395.5 
	490.5,395.5 490.5,436.5 484.5,436.5 484.5,416.5 475.5,416.5 475.5,417.375 472.5,414 472.5,399.625 469.5,397 469.5,390.75 
	465.5,386.5 460.5,386.5 460.5,412.5 457.5,412.5 457.5,408.5 455.5,408.5 455.5,402.5 453.5,402.5 453.5,397.875 450.563,394.75 
	445.5,400 445.5,421.5 442.5,421.5 442.5,427.25 438.5,423 438.5,407.5 429.5,407.5 429.5,411.5 425,411.5 420.5,414 420.5,420.5 
	409.5,420.5 409.5,426.5 407.5,426.5 407.5,416.5 404.5,416.5 404.5,412.5 400.5,412.5 400.5,406.625 396.5,411 396.5,417.5 
	383.5,417.5 383.5,426.5 381.5,426.5 381.5,409.5 375.5,409.5 375.5,404.5 373.5,404.5 373.5,400.5 370.75,397.75 363.5,405 
	363.5,411.5 361.5,411.5 361.5,430.5 352.5,430.5 352.5,408.5 347.5,408.5 347.5,413.5 345.75,413.5 339.5,407.5 331.5,407.5 
	331.5,414.5 330.5,414.5 330.5,433.5 326.5,433.5 326.5,421.5 324.5,421.5 324.5,427.5 319.5,427.5 319.5,413 316.875,409.875 
	314.875,412.125 310.125,407.75 305.5,412 305.5,420.625 301.5,425 301.5,414.125 297.5,409.5 293.5,409.5 288.5,413 288.5,418.875 
	285.5,422 285.5,417.5 281.5,417.5 281.5,411.5 277.5,411.5 277.5,416.5 275.5,416.5 275.5,403.5 273.5,403.5 271.25,401 
	269.5,402.5 265.5,402.5 265.5,431.5 263.5,428.5 257.5,428.5 257.5,418.5 255.5,418.5 255.5,414.5 251.5,414.5 251.5,409.5 
	248.876,409.5 246.5,407.5 241.5,407.5 241.5,409.5 236.5,409.5 236.5,414 236.5,423.5 234.5,423.5 234.5,431.5 231.5,431.5 
	231.5,423.375 227.5,418.5 223.5,418.5 223.5,413.5 217.5,413.5 217.5,418.5 214.5,418.5 214.5,430.5 211.5,430.5 211.5,431.5 
	201.5,431.5 201.5,420 197,415.375 192.5,420.5 181.5,420.5 181.5,406 181.5,395.375 179.5,393 179.5,385.5 173.5,385.5 
	173.5,392.625 171.5,395 171.5,406.5 169.5,406.5 169.5,418.5 163.5,418.5 163.5,434.5 152.5,434.5 152.5,418.5 135.5,418.5 
	135.5,404 132,400.25 127.5,405 127.5,418.5 123.5,418.5 123.5,433.5 110.5,433.5 110.5,411.5 101.5,411.5 101.5,407.5 90.5,407.5 
	90.5,411.5 85.5,411.5 85.5,432.5 68.5,432.5 68.5,428.5 60.5,428.5 60.5,434.5 43.5,434.5 43.5,428 43.5,422.5 41.5,422.5 
	41.5,427 41.5,434.5 38.5,434.5 38.5,371.375 31.813,364.625 25.5,371 25.5,390.5 15.5,390.5 15.5,433.5 3.5,433.5 3.5,426.5 
	-2.5,426.5 -2.5,421.125 -6.063,417.75 -10.5,422 -10.5,426.5 -13.5,426.5 -13.5,407.5 -15.5,407.5 -15.5,402.75 -17.499,400.5 
	-19.874,400.5 -23.5,403 -23.5,407.5 -28.5,407.5 -28.5,412.5 -31.5,412.5 -31.5,429.5 -41.5,429.5 -41.5,419.5 -49.5,419.5 
	-49.5,411.5 -60.5,411.5 -60.5,414.5 -65.5,414.5 -65.5,430.5 -68.5,430.5 -68.5,424.5 -73.249,424.5 -77.5,427 -77.5,430.5 
	-79.5,430.5 -79.5,395.5 -87.5,395.5 -87.5,385.25 -90.5,382 -90.5,373.5 -92.5,371 -92.5,366.5 -98.5,366.5 -98.5,371.375 
	-100.5,373 -100.5,383.25 -102.5,385 -102.5,424.5 -106.5,424.5 -106.5,405.5 -108.5,405.5 -108.5,398.75 -112.499,394.5 
	-117.5,394.5 -117.5,397.5 -119.5,397.5 -119.5,341.875 -126.5,335 -126.5,324.75 -129.5,322 -129.5,322.25 -132.5,325 
	-132.5,335.326 -137.5,340 -137.5,369.159 -140.5,372 -140.5,419.5 -143.5,419.5 -143.5,412.5 -147.5,412.5 -147.5,381.5 
	-155.484,381.5 -159.991,377.825 -163.499,381.5 -169.5,381.5 -169.5,402.5 -176.5,402.5 -176.5,433.5 -189.5,433.5 -189.5,426.174 
	-194.5,421 -194.5,434.5 -197.5,434.5 -197.5,436.5 -200.5,436.5 -200.5,422.5 -204.5,422.5 -204.5,412.5 -207.5,412.5 
	-207.5,387.841 -211.499,383.5 -216.992,383.5 -224.5,390 -224.5,401.5 -227.5,401.5 -227.5,439.5 -230.5,439.5 -230.5,442.5 
	-240.5,442.5 -240.5,445.5 -243.658,445.5 -248.499,440.5 -258.5,440.5 -258.5,430.5 -265.5,430.5 -265.5,424.5 -269.5,424.5 
	-269.5,416.841 -272.499,413.5 -275.5,413.5 -275.5,446 511.5,445.006 1298.5,446 "/>
</svg>
